<svg width="191" height="169" viewBox="0 0 191 169" fill="none" xmlns="http://www.w3.org/2000/svg">
<g clip-path="url(#clip0_46_83)">
<path d="M147.935 108.264C147.773 107.984 147.674 107.672 147.646 107.35C147.617 107.027 147.66 106.703 147.77 106.399C147.88 106.094 148.056 105.818 148.284 105.589C148.513 105.361 148.789 105.185 149.092 105.074L148.978 97.2086L152.417 99.4094L151.998 106.541C152.149 107.065 152.104 107.625 151.87 108.117C151.637 108.609 151.231 108.998 150.73 109.211C150.229 109.423 149.668 109.444 149.153 109.27C148.638 109.095 148.204 108.738 147.935 108.264Z" fill="#A0616A"/>
<path d="M143.791 65.5601C142.772 65.7406 141.846 66.2694 141.173 67.0565C140.499 67.8437 140.118 68.8404 140.095 69.8771C140.046 72.1792 140.812 73.0375 141.896 73.3477C143.899 73.9211 147.089 85.5172 147.089 85.5172C147.089 85.5172 147.428 96.3328 147.974 95.7988C148.52 95.2647 147.902 96.5109 148.068 96.8912C148.234 97.2715 147.281 97.841 148.187 98.273C149.092 98.705 148.52 102.145 148.52 102.145L152.526 101.859C152.526 101.859 151.861 99.056 152.766 98.8805C153.671 98.705 153.26 97.9074 152.893 97.3027C152.526 96.6981 153.542 95.8364 153.034 95.5505C152.526 95.2647 153.957 84.0838 153.957 84.0838L148.363 67.5934C147.89 66.837 147.202 66.2394 146.387 65.8772C145.572 65.515 144.668 65.4046 143.791 65.5601Z" fill="#8500D3"/>
<path d="M131.636 66.2092L134.518 61.1485H138.412L141.332 66.4959L131.636 66.2092Z" fill="#8500D3"/>
<path d="M123.884 20.7008C121.582 12.9732 115.076 7.92843 107.215 6.82173C107.128 6.80951 107.046 6.82565 106.96 6.82008C106.849 6.786 106.735 6.7598 106.62 6.74167C95.8097 5.3419 84.0083 7.84885 74.6154 13.7366C65.612 19.3802 55.2669 22.5646 44.6466 22.4939C44.3168 22.4917 43.9857 22.4989 43.6533 22.5154C35.4801 22.924 28.2672 28.8843 26.0576 36.7239C25.7677 37.7525 26.273 38.6716 27.0855 39.2545C28.5133 40.279 29.4885 40.997 31.2452 41.3698C34.3797 42.0351 37.5249 42.6468 40.6809 43.205V30.611C40.6822 29.4187 41.1556 28.2757 41.9971 27.4326C42.8387 26.5895 43.9796 26.1153 45.1697 26.1139H106.83C108.02 26.1153 109.161 26.5895 110.002 27.4326C110.844 28.2757 111.317 29.4187 111.318 30.611V46.2951C112.164 46.0302 112.99 45.7046 113.789 45.3209C116.763 43.849 119.305 41.6274 121.163 38.8741C124.733 33.6849 125.676 26.7108 123.884 20.7008Z" fill="#F2F2F2"/>
<path d="M97.923 94.4046H43.415C42.1571 94.4031 40.9512 93.9019 40.0618 93.0109C39.1724 92.1198 38.6721 90.9117 38.6706 89.6515V68.4621C32.0316 66.426 25.0392 65.812 18.1478 66.66C18.0329 66.6781 17.9193 66.7043 17.808 66.7384C17.7219 66.7439 17.6398 66.7278 17.5533 66.74C9.69222 67.8467 3.1866 72.8915 0.883841 80.6191C-0.907245 86.6291 0.0356138 93.6032 3.60542 98.7924C5.46376 101.546 8.00497 103.767 10.9795 105.239C15.068 107.212 19.3714 107.361 23.8338 107.5C37.2321 107.919 50.6432 107.411 63.9717 105.98C70.531 105.275 77.0631 104.354 83.5679 103.217C86.8973 102.633 90.2157 101.99 93.5231 101.288C95.2798 100.915 96.255 100.197 97.6828 99.1728C98.4953 98.5899 99.0006 97.6708 98.7107 96.6422C98.4952 95.8805 98.2322 95.1332 97.923 94.4046Z" fill="#F2F2F2"/>
<path d="M102.747 88.1184H49.2523C48.2198 88.1172 47.23 87.7057 46.4999 86.9743C45.7698 86.2429 45.3591 85.2512 45.3579 84.2168V34.4121C45.3591 33.3777 45.7698 32.386 46.4999 31.6546C47.23 30.9231 48.2198 30.5117 49.2523 30.5105H102.747C103.779 30.5117 104.769 30.9231 105.499 31.6546C106.229 32.386 106.64 33.3777 106.641 34.4121V84.2168C106.64 85.2512 106.229 86.2428 105.499 86.9743C104.769 87.7057 103.779 88.1172 102.747 88.1184Z" fill="#E6E6E6"/>
<path d="M91.4878 85.4867H51.8798C50.8473 85.4855 49.8574 85.074 49.1273 84.3426C48.3972 83.6112 47.9865 82.6195 47.9854 81.5851V37.0458C47.9865 36.0114 48.3972 35.0197 49.1273 34.2883C49.8574 33.5569 50.8473 33.1454 51.8798 33.1442H100.12C101.153 33.1454 102.142 33.5569 102.872 34.2883C103.603 35.0197 104.013 36.0114 104.014 37.0458V72.9371C104.011 76.2643 102.69 79.4542 100.341 81.8069C97.993 84.1595 94.809 85.4829 91.4878 85.4867Z" fill="white"/>
<path d="M76.0001 76.8036C85.6408 76.8036 93.4562 68.9739 93.4562 59.3155C93.4562 49.657 85.6408 41.8273 76.0001 41.8273C66.3593 41.8273 58.5439 49.657 58.5439 59.3155C58.5439 68.9739 66.3593 76.8036 76.0001 76.8036Z" fill="#8500D3"/>
<path d="M83.3536 58.4356L77.5284 51.3389C77.3703 51.1464 77.1724 50.9906 76.9483 50.8823C76.7243 50.774 76.4793 50.7157 76.2306 50.7116C75.9818 50.7075 75.7351 50.7576 75.5076 50.8584C75.2801 50.9592 75.0771 51.1083 74.9128 51.2955L68.6834 58.3922C68.3833 58.7349 68.2313 59.1829 68.2607 59.6378C68.2901 60.0927 68.4985 60.5174 68.8403 60.8184C69.182 61.1195 69.629 61.2723 70.0831 61.2434C70.5372 61.2145 70.9613 61.0061 71.2622 60.6642L74.4852 56.9924V66.1995C74.4852 66.6557 74.6661 67.0932 74.9881 67.4158C75.3101 67.7384 75.7469 67.9196 76.2022 67.9196C76.6576 67.9196 77.0943 67.7384 77.4163 67.4158C77.7383 67.0932 77.9192 66.6557 77.9192 66.1995V57.2315L80.7012 60.6208C80.9905 60.9731 81.4076 61.196 81.8608 61.2402C82.3141 61.2845 82.7663 61.1466 83.118 60.8568C83.4697 60.567 83.6921 60.1491 83.7363 59.6951C83.7805 59.241 83.6428 58.788 83.3536 58.4356Z" fill="white"/>
<path d="M151.225 165.8L148.636 165.8L147.404 155.792L151.226 155.793L151.225 165.8Z" fill="#A0616A"/>
<path d="M151.317 168.506L143.353 168.506V168.405C143.353 167.582 143.679 166.792 144.261 166.21C144.842 165.627 145.63 165.3 146.453 165.3L147.907 164.194L150.622 165.3L151.317 165.3L151.317 168.506Z" fill="#2F2E41"/>
<path d="M131.766 165.8L129.176 165.8L127.944 155.792L131.767 155.793L131.766 165.8Z" fill="#A0616A"/>
<path d="M131.857 168.506L123.894 168.506V168.405C123.894 167.582 124.22 166.792 124.802 166.21C125.383 165.627 126.171 165.3 126.993 165.3L128.448 164.194L131.162 165.3L131.858 165.3L131.857 168.506Z" fill="#2F2E41"/>
<path d="M152.051 157.517C152.996 156.899 152.448 156.939 152.448 156.939C152.448 156.939 150.336 139.778 148.728 134.577L146.868 109.252C146.868 109.252 146.75 109.757 146.868 108.529C146.986 107.301 147.845 108.161 146.986 107.301C146.128 106.441 145.555 106.003 146.128 105.362C146.7 104.721 148.279 103.424 147.346 102.639C146.414 101.854 144.579 96.734 144.579 96.734L126.694 96.8773L127.409 96.734C127.409 96.734 125.176 95.9041 126.199 96.9848C127.222 98.0655 125.627 100.712 125.054 103.292C124.58 105.429 123.173 105.996 125.054 106.446C126.936 106.895 125.233 108.169 125.233 108.169C125.233 108.169 122.401 121.676 124.547 130.563C124.547 130.563 126.028 152.545 126.777 154.435C127.527 156.325 127.813 155.179 127.527 156.325C127.241 157.472 126.669 155.465 127.241 157.472C127.553 158.52 127.8 159.587 127.981 160.666L131.862 160.379C131.862 160.379 132.764 157.533 131.862 156.786C130.961 156.039 131.583 158.219 132.56 156.556C133.537 154.892 132.392 155.465 132.106 153.172C131.82 150.878 134.445 140.194 132.56 133.639L136.044 115.244L141.574 134.29C141.574 134.29 144.508 157.553 145.461 158.372C146.414 159.192 146.029 157.202 146.414 159.192C146.803 161.204 147.686 160.67 147.661 160.917C147.395 163.546 152.051 160.953 152.051 160.953C152.005 160.284 152.005 159.614 152.051 158.946C152.137 158.332 151.106 158.136 152.051 157.517Z" fill="#2F2E41"/>
<path d="M128.489 102.719C127.344 102.719 124.196 101.166 124.768 100.509C125.341 99.8517 125.341 97.6711 125.341 97.0413C125.341 96.4114 127.916 73.1895 127.916 73.1895L127.72 67.5037C127.709 67.1629 127.766 66.8232 127.888 66.5049C128.01 66.1866 128.195 65.8961 128.431 65.6509C128.668 65.4056 128.951 65.2106 129.264 65.0774C129.578 64.9441 129.915 64.8755 130.255 64.8755L132.781 64.0154L139.935 63.7287L143.503 64.8755C143.857 64.8755 144.205 64.9665 144.513 65.1398C144.822 65.3131 145.081 65.5629 145.266 65.8653C145.451 66.1677 145.555 66.5126 145.569 66.867C145.583 67.2213 145.506 67.5732 145.345 67.8891C147.238 70.9853 148.188 74.5677 148.078 78.1969C147.996 80.9123 146.623 84.2283 146.292 87.2959C146.263 87.5652 146.242 87.8326 146.231 88.0974C146.228 88.1713 145.642 88.5393 146.222 88.3184C146.803 88.0974 145.911 88.8773 146.214 89.3474C146.517 89.8176 147.104 89.5295 146.238 90.1036C145.372 90.6776 147.278 96.2228 147.089 96.4114C146.517 96.9848 145.372 97.2715 146.231 98.1316C147.089 98.9917 147.948 98.4183 146.803 99.565C145.658 100.712 142.229 102.719 142.229 102.719L128.489 102.719Z" fill="#3F3D56"/>
<path d="M136.139 60.3996C139.54 60.3996 142.298 57.637 142.298 54.2291C142.298 50.8212 139.54 48.0586 136.139 48.0586C132.737 48.0586 129.979 50.8212 129.979 54.2291C129.979 57.637 132.737 60.3996 136.139 60.3996Z" fill="#A0616A"/>
<path d="M98.6253 73.3741C98.9208 73.2433 99.2413 73.1789 99.5642 73.1856C99.8872 73.1923 100.205 73.2698 100.495 73.4127C100.784 73.5557 101.039 73.7605 101.242 74.0128C101.444 74.2652 101.588 74.5589 101.665 74.8733L109.482 75.6141L106.925 78.7996L99.8939 77.6077C99.3582 77.7018 98.8067 77.5957 98.3438 77.3096C97.881 77.0235 97.539 76.5772 97.3826 76.0554C97.2263 75.5335 97.2664 74.9723 97.4954 74.4782C97.7245 73.984 98.1265 73.5912 98.6253 73.3741Z" fill="#A0616A"/>
<path d="M135.689 68.7808C135.509 67.7597 134.981 66.8327 134.196 66.1576C133.41 65.4825 132.415 65.1012 131.38 65.0784C129.083 65.0285 128.226 65.7967 127.916 66.8823C127.344 68.8892 118.13 75.9435 118.13 75.9435L110.217 75.0856C109.742 74.9308 109.967 74.4966 108.178 74.8645C107.297 74.2864 106.727 74.3843 106.237 74.654L103.306 74.3363L103.592 78.9233C103.592 78.9233 106.729 78.1756 107.312 79.4967C107.895 80.8178 107.762 81.0075 109.029 80.0701C110.297 79.1326 110.174 80.0701 110.174 80.0701L119.331 82.3636L133.66 73.3613C134.415 72.887 135.011 72.1977 135.373 71.3816C135.735 70.5656 135.845 69.66 135.689 68.7808Z" fill="#8500D3"/>
<path d="M138.53 59.738L138.933 59.867C137.672 59.9731 135.422 60.6783 135.643 60.2884C135.863 59.8985 135.03 58.4278 135.437 58.2414C135.859 58.093 136.236 57.8371 136.53 57.4989C136.787 57.1377 136.782 56.5414 136.395 56.3206C136.02 56.1027 135.557 56.3378 135.185 56.5586C134.81 56.7765 134.117 53.5713 134.295 52.5707C133.25 51.9973 131.985 53.0954 130.812 52.8803C130.094 52.7485 129.576 52.1579 129.25 51.487C129.783 50.9805 130.179 50.3475 130.403 49.6465C129.905 49.8979 129.373 50.0746 128.823 50.1711C128.725 49.6505 128.738 49.1149 128.863 48.6C128.959 48.189 129.155 47.8081 129.433 47.491C129.711 47.1739 130.063 46.9305 130.457 46.7824C130.858 46.6495 131.291 46.6571 131.686 46.8041C132.082 46.951 132.415 47.2286 132.632 47.5909C132.656 47.2006 132.556 46.8127 132.347 46.483C132.137 46.1533 131.828 45.8988 131.465 45.7561C131.73 45.6182 132.023 45.5436 132.322 45.5381C132.621 45.5326 132.916 45.5963 133.187 45.7242C133.457 45.8521 133.694 46.0409 133.879 46.2756C134.064 46.5104 134.193 46.7849 134.255 47.0777C135.547 46.4289 137.03 46.27 138.43 46.6305C139.815 46.9946 141.652 48.5341 141.652 48.5341C144.777 49.225 144.628 61.1284 138.53 59.738Z" fill="#2F2E41"/>
<path d="M171.16 166.046C171.232 166.049 171.302 166.031 171.363 165.992C171.423 165.954 171.47 165.898 171.498 165.832C171.525 165.766 171.532 165.694 171.517 165.624C171.501 165.554 171.465 165.49 171.413 165.442L171.389 165.347L171.398 165.324C171.47 165.154 171.591 165.009 171.744 164.907C171.898 164.806 172.078 164.752 172.263 164.753C172.447 164.753 172.627 164.808 172.78 164.911C172.933 165.014 173.052 165.16 173.123 165.33C173.405 166.011 173.764 166.693 173.852 167.412C173.891 167.73 173.875 168.052 173.804 168.365C174.466 166.917 174.81 165.344 174.812 163.752C174.812 163.352 174.79 162.953 174.746 162.556C174.709 162.23 174.658 161.907 174.593 161.586C174.238 159.845 173.476 158.212 172.369 156.824C171.833 156.531 171.4 156.08 171.128 155.533C171.029 155.337 170.959 155.127 170.921 154.91C171.038 154.6 171.1 154.271 171.103 153.939C171.187 153.811 171.338 153.748 171.43 153.623C171.887 153.001 172.518 153.11 172.847 153.954C173.549 154.31 173.556 154.899 173.125 155.466C172.851 155.826 172.813 156.314 172.572 156.701C172.597 156.732 172.623 156.763 172.647 156.795C173.1 157.378 173.495 158.004 173.826 158.665C173.745 157.925 173.841 157.177 174.106 156.481C174.374 155.833 174.877 155.287 175.319 154.727C175.436 154.577 175.595 154.464 175.776 154.404C175.957 154.344 176.151 154.339 176.335 154.39C176.519 154.441 176.683 154.545 176.808 154.689C176.932 154.833 177.011 155.012 177.035 155.201L177.037 155.226C176.972 155.263 176.907 155.302 176.844 155.344C176.765 155.397 176.704 155.473 176.668 155.561C176.633 155.649 176.625 155.747 176.646 155.84C176.666 155.933 176.714 156.017 176.784 156.082C176.853 156.148 176.941 156.19 177.035 156.205L177.044 156.206C177.021 156.444 176.979 156.679 176.92 156.91C177.488 159.11 176.262 159.911 174.512 159.947C174.473 159.967 174.436 159.987 174.397 160.006C174.729 160.949 174.938 161.932 175.017 162.93C175.062 163.518 175.06 164.109 175.009 164.697L175.012 164.677C175.139 164.023 175.487 163.433 175.998 163.006C176.757 162.382 177.828 162.152 178.647 161.65C178.734 161.594 178.835 161.564 178.938 161.564C179.042 161.564 179.143 161.593 179.23 161.649C179.317 161.704 179.387 161.784 179.431 161.877C179.474 161.971 179.49 162.076 179.477 162.178L179.474 162.2C179.352 162.25 179.233 162.307 179.118 162.372C179.052 162.409 178.988 162.448 178.925 162.49C178.846 162.543 178.784 162.619 178.749 162.707C178.714 162.796 178.706 162.893 178.726 162.986C178.747 163.079 178.795 163.164 178.864 163.229C178.934 163.294 179.021 163.337 179.115 163.351L179.125 163.353L179.145 163.355C178.936 163.854 178.644 164.313 178.28 164.712C177.925 166.633 176.4 166.815 174.769 166.256H174.768C174.589 167.035 174.329 167.793 173.994 168.519H171.23C171.22 168.488 171.211 168.456 171.202 168.425C171.458 168.441 171.715 168.426 171.967 168.38C171.762 168.128 171.557 167.874 171.352 167.621C171.347 167.617 171.343 167.612 171.339 167.607C171.235 167.478 171.13 167.349 171.026 167.22C171.02 166.825 171.065 166.43 171.16 166.046Z" fill="#F2F2F2"/>
<path d="M79.1332 168.912L190.659 169C190.75 169 190.836 168.964 190.9 168.9C190.964 168.836 191 168.749 191 168.659C191 168.568 190.964 168.481 190.9 168.417C190.836 168.353 190.75 168.317 190.659 168.317L79.1332 168.229C79.0428 168.229 78.9562 168.265 78.8923 168.329C78.8284 168.393 78.7925 168.48 78.7925 168.571C78.7925 168.661 78.8284 168.748 78.8923 168.812C78.9562 168.876 79.0428 168.912 79.1332 168.912Z" fill="#CACACA"/>
<path d="M73.4354 121.067C72.6348 121.067 71.8522 120.829 71.1865 120.383C70.5208 119.938 70.002 119.304 69.6956 118.563C69.3892 117.822 69.309 117.007 69.4652 116.22C69.6214 115.434 70.007 114.711 70.5731 114.144C71.1392 113.577 71.8605 113.19 72.6457 113.034C73.4309 112.878 74.2448 112.958 74.9845 113.265C75.7242 113.572 76.3564 114.092 76.8012 114.758C77.246 115.425 77.4834 116.209 77.4834 117.011C77.4822 118.087 77.0553 119.117 76.2964 119.878C75.5375 120.638 74.5086 121.066 73.4354 121.067ZM73.4354 113.529C72.748 113.529 72.076 113.734 71.5045 114.116C70.9329 114.499 70.4874 115.043 70.2243 115.679C69.9613 116.315 69.8925 117.015 70.0266 117.691C70.1607 118.366 70.4917 118.987 70.9778 119.474C71.4638 119.961 72.0831 120.292 72.7573 120.427C73.4316 120.561 74.1304 120.492 74.7655 120.228C75.4006 119.965 75.9434 119.519 76.3253 118.946C76.7072 118.373 76.911 117.7 76.911 117.011C76.91 116.088 76.5435 115.203 75.8919 114.55C75.2403 113.898 74.3569 113.53 73.4354 113.529Z" fill="#F2F2F2"/>
<path d="M75.0201 116.822L73.7648 115.292C73.7307 115.251 73.688 115.217 73.6397 115.194C73.5915 115.171 73.5387 115.158 73.4851 115.157C73.4315 115.156 73.3783 115.167 73.3293 115.189C73.2802 115.211 73.2365 115.243 73.2011 115.283L71.8586 116.812C71.7945 116.886 71.7621 116.983 71.7687 117.08C71.7752 117.178 71.8201 117.269 71.8935 117.334C71.9669 117.399 72.0629 117.432 72.1605 117.426C72.2581 117.42 72.3494 117.375 72.4144 117.302L73.1089 116.511V118.495C73.1089 118.593 73.1479 118.688 73.2173 118.757C73.2867 118.827 73.3808 118.866 73.4789 118.866C73.5771 118.866 73.6712 118.827 73.7406 118.757C73.81 118.688 73.8489 118.593 73.8489 118.495V116.562L74.4485 117.293C74.5108 117.369 74.6007 117.417 74.6984 117.426C74.796 117.436 74.8935 117.406 74.9693 117.344C75.0451 117.281 75.093 117.191 75.1025 117.093C75.1121 116.995 75.0824 116.898 75.0201 116.822Z" fill="#F2F2F2"/>
<path d="M119.508 61.1485C118.707 61.1485 117.925 60.9107 117.259 60.4651C116.593 60.0194 116.074 59.3861 115.768 58.6451C115.462 57.904 115.382 57.0886 115.538 56.302C115.694 55.5153 116.079 54.7927 116.646 54.2255C117.212 53.6584 117.933 53.2721 118.718 53.1157C119.503 52.9592 120.317 53.0395 121.057 53.3464C121.797 53.6534 122.429 54.1732 122.874 54.8401C123.318 55.507 123.556 56.291 123.556 57.0931C123.555 58.1683 123.128 59.1991 122.369 59.9594C121.61 60.7196 120.581 61.1473 119.508 61.1485ZM119.508 53.6111C118.821 53.6111 118.149 53.8153 117.577 54.1979C117.005 54.5806 116.56 55.1244 116.297 55.7606C116.034 56.3969 115.965 57.097 116.099 57.7724C116.233 58.4479 116.564 59.0683 117.05 59.5553C117.536 60.0422 118.156 60.3739 118.83 60.5082C119.504 60.6426 120.203 60.5736 120.838 60.3101C121.473 60.0465 122.016 59.6002 122.398 59.0276C122.78 58.455 122.984 57.7818 122.984 57.0931C122.983 56.17 122.616 55.2849 121.964 54.6321C121.313 53.9793 120.429 53.6122 119.508 53.6111Z" fill="#F2F2F2"/>
<path d="M121.093 56.9035L119.837 55.3741C119.803 55.3326 119.761 55.299 119.712 55.2757C119.664 55.2524 119.611 55.2398 119.558 55.2389C119.504 55.238 119.451 55.2488 119.402 55.2705C119.353 55.2923 119.309 55.3244 119.274 55.3647L117.931 56.8941C117.867 56.968 117.835 57.0644 117.841 57.1621C117.848 57.2599 117.893 57.351 117.966 57.4157C118.039 57.4804 118.135 57.5134 118.233 57.5074C118.331 57.5014 118.422 57.4569 118.487 57.3837L119.181 56.5925V58.5766C119.181 58.6749 119.22 58.7692 119.29 58.8387C119.359 58.9082 119.453 58.9473 119.551 58.9473C119.65 58.9473 119.744 58.9082 119.813 58.8387C119.882 58.7692 119.921 58.6749 119.921 58.5766V56.644L120.521 57.3744C120.583 57.4503 120.673 57.4983 120.771 57.5079C120.869 57.5174 120.966 57.4877 121.042 57.4252C121.118 57.3628 121.166 57.2727 121.175 57.1749C121.185 57.077 121.155 56.9794 121.093 56.9035Z" fill="#F2F2F2"/>
<path d="M28.2211 57.7082C27.4204 57.7082 26.6378 57.4704 25.9721 57.0248C25.3065 56.5792 24.7876 55.9458 24.4812 55.2048C24.1748 54.4637 24.0947 53.6483 24.2509 52.8617C24.4071 52.075 24.7926 51.3524 25.3587 50.7852C25.9248 50.2181 26.6461 49.8319 27.4313 49.6754C28.2166 49.5189 29.0305 49.5992 29.7701 49.9062C30.5098 50.2131 31.142 50.7329 31.5868 51.3998C32.0316 52.0667 32.269 52.8508 32.269 53.6528C32.2678 54.728 31.8409 55.7588 31.0821 56.5191C30.3232 57.2793 29.2943 57.707 28.2211 57.7082ZM28.2211 50.1708C27.5336 50.1708 26.8617 50.3751 26.2901 50.7577C25.7185 51.1403 25.2731 51.6841 25.01 52.3203C24.7469 52.9566 24.6781 53.6567 24.8122 54.3321C24.9463 55.0076 25.2773 55.628 25.7634 56.115C26.2495 56.602 26.8688 56.9336 27.543 57.0679C28.2172 57.2023 28.916 57.1333 29.5511 56.8698C30.1862 56.6062 30.729 56.16 31.1109 55.5873C31.4928 55.0147 31.6967 54.3415 31.6967 53.6528C31.6957 52.7297 31.3292 51.8446 30.6776 51.1918C30.026 50.539 29.1425 50.1719 28.2211 50.1708Z" fill="#F2F2F2"/>
<path d="M29.8057 53.4632L28.5504 51.9338C28.5163 51.8923 28.4737 51.8588 28.4254 51.8354C28.3771 51.8121 28.3243 51.7995 28.2707 51.7986C28.2171 51.7977 28.1639 51.8085 28.1149 51.8303C28.0659 51.852 28.0221 51.8841 27.9867 51.9245L26.6443 53.4538C26.5801 53.5277 26.5478 53.6241 26.5543 53.7218C26.5608 53.8196 26.6057 53.9108 26.6791 53.9755C26.7526 54.0401 26.8486 54.0731 26.9462 54.0671C27.0438 54.0611 27.135 54.0166 27.2 53.9434L27.8946 53.1522V55.1363C27.8946 55.2346 27.9335 55.3289 28.0029 55.3984C28.0723 55.468 28.1664 55.507 28.2646 55.507C28.3627 55.507 28.4568 55.468 28.5262 55.3984C28.5956 55.3289 28.6346 55.2346 28.6346 55.1363V53.2037L29.2341 53.9341C29.2965 54.01 29.3863 54.058 29.484 54.0676C29.5817 54.0771 29.6791 54.0474 29.7549 53.985C29.8307 53.9225 29.8787 53.8325 29.8882 53.7346C29.8977 53.6368 29.8681 53.5391 29.8057 53.4632Z" fill="#F2F2F2"/>
<path d="M60.558 8.11077C59.7574 8.11077 58.9747 7.87293 58.309 7.42732C57.6434 6.9817 57.1245 6.34834 56.8181 5.60731C56.5118 4.86629 56.4316 4.05089 56.5878 3.26422C56.744 2.47755 57.1295 1.75495 57.6956 1.1878C58.2617 0.620642 58.983 0.234404 59.7683 0.077926C60.5535 -0.0785521 61.3674 0.00175433 62.1071 0.308697C62.8467 0.615639 63.4789 1.13543 63.9237 1.80233C64.3685 2.46924 64.6059 3.25331 64.6059 4.05539C64.6047 5.13057 64.1778 6.16136 63.419 6.92163C62.6601 7.68189 61.6312 8.10955 60.558 8.11077ZM60.558 0.573388C59.8706 0.573387 59.1986 0.777604 58.627 1.16021C58.0554 1.54282 57.61 2.08663 57.3469 2.72288C57.0838 3.35914 57.015 4.05925 57.1491 4.7347C57.2832 5.41014 57.6143 6.03057 58.1003 6.51754C58.5864 7.00451 59.2057 7.33613 59.8799 7.47049C60.5541 7.60484 61.253 7.53589 61.888 7.27234C62.5231 7.0088 63.0659 6.56249 63.4478 5.98988C63.8298 5.41727 64.0336 4.74406 64.0336 4.05539C64.0326 3.13222 63.6661 2.24715 63.0145 1.59437C62.3629 0.941588 61.4795 0.574412 60.558 0.573388Z" fill="#F2F2F2"/>
<path d="M62.1427 3.86572L60.8873 2.33635C60.8532 2.29487 60.8106 2.26129 60.7623 2.23795C60.714 2.21461 60.6612 2.20207 60.6076 2.20118C60.554 2.20029 60.5009 2.21108 60.4518 2.2328C60.4028 2.25453 60.3591 2.28667 60.3236 2.327L58.9812 3.85636C58.917 3.93028 58.8847 4.02665 58.8912 4.12439C58.8977 4.22213 58.9426 4.3133 59.0161 4.37799C59.0895 4.44268 59.1855 4.47563 59.2831 4.46963C59.3807 4.46363 59.4719 4.41918 59.5369 4.34598L60.2315 3.55472V5.53887C60.2315 5.63718 60.2705 5.73146 60.3399 5.80098C60.4092 5.8705 60.5034 5.90956 60.6015 5.90956C60.6996 5.90956 60.7937 5.8705 60.8631 5.80098C60.9325 5.73146 60.9715 5.63718 60.9715 5.53887V3.60625L61.571 4.33664C61.6334 4.41258 61.7233 4.4606 61.8209 4.47013C61.9186 4.47967 62.0161 4.44995 62.0919 4.3875C62.1677 4.32506 62.2156 4.235 62.2251 4.13715C62.2346 4.0393 62.205 3.94165 62.1427 3.86572Z" fill="#F2F2F2"/>
<path d="M17.3469 87.8107C16.5463 87.8107 15.7636 87.5729 15.0979 87.1273C14.4322 86.6817 13.9134 86.0483 13.607 85.3073C13.3006 84.5662 13.2204 83.7508 13.3766 82.9641C13.5328 82.1774 13.9183 81.4548 14.4845 80.8876C15.0506 80.3205 15.7719 79.9342 16.5571 79.7778C17.3424 79.6213 18.1563 79.7016 18.896 80.0085C19.6357 80.3155 20.2679 80.8353 20.7127 81.5022C21.1575 82.1692 21.3949 82.9532 21.3949 83.7553C21.3937 84.8305 20.9668 85.8613 20.2079 86.6216C19.4491 87.3819 18.4201 87.8095 17.3469 87.8107ZM17.3469 80.2732C16.6595 80.2732 15.9875 80.4774 15.4159 80.86C14.8443 81.2426 14.3988 81.7864 14.1358 82.4227C13.8727 83.0589 13.8038 83.7591 13.9379 84.4345C14.072 85.11 14.403 85.7304 14.8891 86.2174C15.3752 86.7044 15.9945 87.0361 16.6687 87.1704C17.3429 87.3048 18.0418 87.2359 18.6769 86.9723C19.312 86.7088 19.8548 86.2625 20.2368 85.6899C20.6187 85.1173 20.8225 84.444 20.8226 83.7554C20.8215 82.8322 20.455 81.9471 19.8035 81.2943C19.1519 80.6415 18.2684 80.2743 17.3469 80.2732Z" fill="white"/>
<path d="M18.9315 83.5657L17.6761 82.0363C17.6421 81.9948 17.5994 81.9613 17.5511 81.9379C17.5028 81.9146 17.4501 81.902 17.3965 81.9011C17.3428 81.9002 17.2897 81.911 17.2406 81.9328C17.1916 81.9545 17.1479 81.9866 17.1125 82.027L15.77 83.5563C15.7058 83.6302 15.6735 83.7266 15.68 83.8243C15.6866 83.9221 15.7314 84.0133 15.8049 84.078C15.8783 84.1426 15.9743 84.1756 16.0719 84.1696C16.1695 84.1636 16.2608 84.1191 16.3257 84.0459L17.0203 83.2547V85.2388C17.0203 85.3371 17.0593 85.4314 17.1287 85.5009C17.1981 85.5705 17.2922 85.6095 17.3903 85.6095C17.4884 85.6095 17.5826 85.5705 17.6519 85.5009C17.7213 85.4314 17.7603 85.3371 17.7603 85.2388V83.3062L18.3599 84.0366C18.4222 84.1125 18.5121 84.1606 18.6098 84.1701C18.7074 84.1796 18.8049 84.1499 18.8807 84.0875C18.9565 84.025 19.0044 83.935 19.0139 83.8371C19.0234 83.7393 18.9938 83.6416 18.9315 83.5657Z" fill="white"/>
<path d="M104.914 19.8651C104.113 19.8651 103.33 19.6273 102.665 19.1816C101.999 18.736 101.48 18.1027 101.174 17.3616C100.867 16.6206 100.787 15.8052 100.943 15.0185C101.099 14.2318 101.485 13.5092 102.051 12.942C102.617 12.3748 103.339 11.9886 104.124 11.8321C104.909 11.6756 105.723 11.7559 106.463 12.0629C107.202 12.3698 107.835 12.8897 108.279 13.5566C108.724 14.2235 108.962 15.0076 108.962 15.8097C108.96 16.8849 108.533 17.9157 107.775 18.6759C107.016 19.4362 105.987 19.8639 104.914 19.8651ZM104.914 12.3276C104.226 12.3275 103.554 12.5317 102.983 12.9144C102.411 13.297 101.965 13.8408 101.702 14.477C101.439 15.1133 101.37 15.8134 101.505 16.4889C101.639 17.1643 101.97 17.7848 102.456 18.2718C102.942 18.7588 103.561 19.0904 104.235 19.2248C104.91 19.3591 105.608 19.2902 106.244 19.0267C106.879 18.7631 107.421 18.3168 107.803 17.7442C108.185 17.1716 108.389 16.4984 108.389 15.8097C108.388 14.8865 108.022 14.0014 107.37 13.3486C106.719 12.6958 105.835 12.3286 104.914 12.3276Z" fill="white"/>
<path d="M106.498 15.62L105.243 14.0907C105.209 14.0492 105.166 14.0156 105.118 13.9923C105.07 13.9689 105.017 13.9564 104.963 13.9555C104.91 13.9546 104.857 13.9654 104.808 13.9871C104.759 14.0088 104.715 14.041 104.679 14.0813L103.337 15.6107C103.273 15.6846 103.24 15.781 103.247 15.8787C103.253 15.9764 103.298 16.0676 103.372 16.1323C103.445 16.197 103.541 16.2299 103.639 16.2239C103.736 16.2179 103.828 16.1735 103.893 16.1003L104.587 15.309V17.2932C104.587 17.3915 104.626 17.4858 104.696 17.5553C104.765 17.6248 104.859 17.6639 104.957 17.6639C105.055 17.6639 105.149 17.6248 105.219 17.5553C105.288 17.4858 105.327 17.3915 105.327 17.2932V15.3606L105.927 16.091C105.989 16.1669 106.079 16.2149 106.177 16.2244C106.274 16.234 106.372 16.2043 106.448 16.1418C106.523 16.0794 106.571 15.9893 106.581 15.8915C106.59 15.7936 106.561 15.696 106.498 15.62Z" fill="white"/>
</g>
<defs>
<clipPath id="clip0_46_83">
<rect width="191" height="169" fill="white"/>
</clipPath>
</defs>
</svg>
